# xmcd
#
# Track frame offsets:
#	183
#	37983
#	90708
#	117183
#	155958
#	205608
#
# Disc length: 3515
#
# Revision: 1
# Processed by: cddbd v1.5.1PL0 Copyright (c) Steve Scherf et al.
# Submitted via: CDex 1.51
# Normalized: r0:TRMNUM
#
DISCID=470db906
DTITLE=WDR Bigband - Traces of trane
DYEAR=1992
DGENRE=Jazz
TTITLE0=My Favourite Things
TTITLE1=Impressions
TTITLE2=Naima
TTITLE3=Acknowledgement (Part 1 from Love Supreme)
TTITLE4=Love - ToBe - The Drum Thing
TTITLE5=Resolution (Part 2 from Love Supreme)
EXTD=YEAR: 1992
EXTT0=
EXTT1=
EXTT2=
EXTT3=
EXTT4=
EXTT5=
PLAYORDER=
